<?xml version="1.0" standalone="no"?>
<!DOCTYPE svg PUBLIC "-//W3C//DTD SVG 20010904//EN"
 "http://www.w3.org/TR/2001/REC-SVG-20010904/DTD/svg10.dtd">
<svg version="1.0" xmlns="http://www.w3.org/2000/svg"
 width="920.000000pt" height="559.000000pt" viewBox="0 0 920.000000 559.000000"
 preserveAspectRatio="xMidYMid meet">

<g transform="translate(0.000000,559.000000) scale(0.100000,-0.100000)"
fill="#a6adbb" stroke="none">
<path d="M4065 4731 c-946 -471 -1852 -922 -2013 -1001 -230 -113 -291 -147
-287 -159 43 -109 41 -213 -5 -308 -39 -82 -107 -142 -225 -201 l-99 -49 72
-24 c40 -12 72 -26 72 -31 0 -4 -11 -36 -24 -72 l-23 -66 68 -22 c38 -12 69
-27 69 -33 0 -7 -9 -38 -20 -70 -11 -31 -18 -61 -15 -65 2 -4 34 -16 70 -26
36 -10 65 -22 65 -26 0 -4 -11 -36 -24 -72 l-23 -65 66 -22 c36 -12 69 -23 72
-25 4 -2 -4 -34 -18 -70 -13 -37 -20 -70 -16 -74 4 -4 33 -15 63 -25 30 -10
58 -21 63 -24 4 -4 -2 -34 -13 -66 -11 -32 -20 -63 -20 -70 0 -6 31 -21 69
-33 l70 -23 -25 -71 c-13 -39 -23 -72 -21 -73 1 -1 32 -12 69 -24 38 -13 68
-24 68 -25 0 -2 -9 -29 -20 -61 -11 -32 -20 -63 -20 -70 0 -6 31 -21 69 -33
l70 -23 -24 -69 c-13 -39 -22 -70 -21 -70 2 0 55 24 117 52 109 51 118 53 199
53 72 0 94 -4 147 -29 59 -27 143 -101 170 -151 11 -18 136 43 2018 980 1104
550 2009 1003 2011 1006 2 4 -3 26 -11 49 -22 62 -19 178 6 245 37 100 137
188 282 251 55 24 55 24 -23 49 -30 10 -58 19 -62 22 -4 2 4 35 17 73 13 38
21 71 17 73 -4 3 -32 12 -62 22 -30 10 -59 21 -64 25 -4 5 2 38 14 75 12 36
20 68 19 69 -2 2 -34 13 -71 25 l-66 22 24 71 c13 39 23 72 21 73 -1 1 -32 12
-69 24 -38 13 -68 26 -68 30 0 4 9 34 20 66 11 32 20 61 20 65 0 3 -31 16 -70
29 -38 12 -70 23 -70 25 0 1 11 34 24 73 l24 70 -69 22 c-38 12 -69 26 -69 30
0 4 9 34 20 66 11 32 20 62 20 66 0 4 -30 17 -67 30 -38 12 -69 23 -70 24 -2
1 8 34 21 73 l25 71 -70 23 c-38 12 -69 25 -69 28 0 4 9 33 20 65 11 32 20 61
20 64 0 4 -45 -15 -100 -42 -56 -26 -124 -52 -153 -58 -132 -25 -289 42 -364
155 l-29 43 -1719 -856z m1734 598 c112 -81 264 -121 386 -101 49 8 135 -9
135 -27 0 -4 -9 -34 -20 -66 -11 -32 -20 -62 -20 -66 0 -4 30 -17 68 -30 37
-12 68 -23 69 -24 2 -1 -8 -34 -21 -73 l-24 -71 66 -22 c37 -12 69 -23 71 -25
1 -1 -7 -32 -19 -68 -12 -36 -19 -69 -16 -74 3 -5 33 -17 68 -27 35 -10 64
-19 65 -20 2 -1 -8 -34 -21 -73 l-25 -71 70 -23 c38 -12 69 -27 69 -33 0 -7
-9 -38 -20 -70 -11 -32 -17 -62 -13 -66 5 -3 33 -14 63 -24 30 -10 58 -19 62
-22 4 -2 -4 -35 -17 -73 -13 -38 -21 -71 -17 -73 4 -3 32 -12 62 -22 30 -10
59 -21 64 -25 16 -16 -18 -86 -68 -141 -95 -102 -136 -210 -136 -354 l0 -81
-1892 -942 -1892 -942 -31 29 c-41 39 -99 73 -170 101 -51 20 -79 24 -195 25
-134 2 -190 9 -190 26 0 4 11 37 24 73 l23 65 -66 22 c-36 12 -69 23 -72 25
-4 2 4 34 18 70 13 37 20 70 16 74 -4 4 -33 15 -63 25 -30 10 -58 21 -63 24
-4 4 2 34 13 66 11 32 20 63 20 70 0 6 -31 21 -69 33 l-70 23 25 71 c13 39 23
72 21 73 -1 1 -28 10 -60 20 -32 11 -62 22 -68 25 -5 4 -1 30 11 65 11 32 20
63 20 70 0 6 -31 21 -69 33 l-70 23 25 71 c13 39 23 72 21 73 -1 1 -33 12 -70
25 -51 17 -67 26 -63 37 4 8 9 27 13 41 3 15 30 53 60 85 91 99 135 213 138
354 l1 83 1884 939 c1037 517 1886 940 1887 940 2 1 34 -22 72 -50z"/>
<path d="M3950 4255 c-822 -409 -1509 -756 -1527 -770 -37 -29 -57 -83 -50
-134 3 -20 147 -322 321 -672 234 -474 323 -643 346 -662 35 -30 86 -42 133
-32 17 3 709 345 1537 758 1663 831 1550 768 1550 868 0 42 -35 118 -322 694
-255 513 -327 650 -351 667 -20 15 -50 23 -86 25 l-56 4 -1495 -746z m1597
653 c34 -37 643 -1265 643 -1296 0 -15 -6 -36 -14 -47 -14 -20 -431 -233 -439
-225 -9 10 -687 1370 -686 1377 1 15 414 212 445 212 20 1 38 -7 51 -21z
m-366 -620 c111 -222 266 -535 345 -696 l143 -292 -1257 -626 c-1084 -539
-1261 -624 -1288 -619 -18 3 -36 11 -42 18 -26 31 -642 1280 -642 1301 0 13 8
33 18 45 9 11 576 299 1260 639 683 341 1245 622 1249 626 3 3 8 6 10 6 1 0
94 -181 204 -402z"/>
<path d="M5427 4809 c-13 -8 -15 -14 -7 -29 5 -10 10 -20 10 -22 0 -2 -58 -32
-129 -68 -124 -61 -129 -64 -118 -87 5 -13 16 -23 24 -23 7 0 85 36 173 80
148 74 160 82 150 100 -6 11 -17 20 -24 20 -7 0 -24 9 -38 19 -17 14 -28 17
-41 10z"/>
<path d="M5513 4600 c-40 -16 -20 -55 28 -55 46 0 62 -30 30 -56 -27 -22 -70
-24 -187 -7 -64 9 -89 9 -109 0 l-25 -12 40 -80 c22 -44 44 -80 48 -80 5 0 16
6 26 13 17 13 17 15 -4 56 -12 24 -19 45 -16 48 2 3 45 0 96 -7 100 -13 136
-6 177 32 31 29 31 88 1 122 -26 29 -72 40 -105 26z"/>
<path d="M5652 4331 c-10 -6 -10 -13 -2 -33 9 -19 17 -23 39 -20 38 5 51 -26
21 -50 -27 -22 -64 -23 -84 -2 -26 26 -56 9 -56 -32 0 -29 -5 -37 -34 -51 -19
-9 -41 -13 -50 -10 -20 8 -21 46 -1 61 12 10 12 14 -4 35 l-19 24 -26 -26
c-75 -75 22 -195 117 -146 36 19 67 51 67 70 0 15 6 17 35 12 62 -10 125 33
125 87 0 29 -26 76 -45 84 -23 9 -68 7 -83 -3z"/>
<path d="M5705 4010 c-83 -6 -115 -15 -115 -31 0 -6 9 -27 20 -49 l20 -39 -32
-17 c-18 -9 -34 -18 -36 -19 -1 -1 3 -14 9 -28 l12 -26 36 19 c33 16 38 17 47
3 16 -25 57 -7 50 21 -5 20 6 28 95 72 56 27 103 52 105 56 3 4 0 17 -6 28
-12 22 -40 23 -205 10z m31 -67 c-48 -24 -50 -25 -63 -7 -13 18 -11 19 34 25
79 10 80 9 29 -18z"/>
<path d="M5898 3784 c-49 -24 -88 -48 -88 -52 0 -19 28 -45 43 -39 18 7 42
-17 32 -33 -3 -6 -33 -24 -65 -40 -54 -27 -60 -28 -75 -14 -14 15 -14 18 0 40
12 19 13 29 5 44 -11 21 -21 19 -52 -8 -12 -10 -18 -29 -18 -57 0 -54 31 -85
83 -85 40 0 125 38 157 70 27 27 26 75 -1 94 -21 14 -21 15 10 31 38 19 43 17
66 -35 19 -43 25 -46 55 -30 19 10 18 14 -17 85 -21 41 -40 75 -43 74 -3 0
-44 -20 -92 -45z"/>
<path d="M4369 4230 l-37 -19 69 -227 c37 -124 70 -228 72 -231 5 -4 67 24 67
31 0 2 -7 23 -15 46 -8 23 -15 46 -15 51 0 9 60 43 64 37 18 -24 61 -84 62
-86 5 -8 65 30 62 39 -8 23 -273 379 -282 379 -6 -1 -27 -10 -47 -20z m114
-180 c45 -67 46 -70 26 -81 -11 -6 -22 -9 -23 -7 -2 2 -12 30 -23 63 -12 33
-24 68 -28 78 -14 34 3 16 48 -53z"/>
<path d="M4158 4129 c-21 -11 -38 -23 -38 -27 0 -4 20 -77 44 -162 25 -85 44
-156 43 -157 -1 -1 -48 59 -105 132 l-102 135 -45 -22 c-37 -18 -44 -26 -39
-43 6 -19 192 -396 200 -404 6 -6 64 21 64 30 0 5 -27 64 -61 132 -34 67 -57
118 -52 112 5 -5 47 -56 92 -112 46 -57 89 -103 95 -103 7 0 20 6 29 13 15 11
14 22 -18 141 -19 72 -33 131 -32 133 2 1 30 -52 62 -117 33 -66 61 -120 63
-120 1 0 16 7 32 15 l29 15 -104 212 c-57 117 -108 214 -112 215 -4 1 -25 -7
-45 -18z"/>
<path d="M3768 3934 l-88 -44 107 -214 107 -214 92 46 92 46 -16 32 -15 33
-60 -30 c-32 -17 -60 -29 -62 -27 -4 5 -55 107 -55 111 0 2 18 12 40 22 22 10
40 22 40 27 0 8 -18 47 -25 56 -2 2 -22 -6 -45 -18 -23 -12 -43 -20 -45 -18
-4 5 -55 107 -55 111 0 2 27 16 59 32 l59 28 -16 33 c-9 19 -18 34 -21 33 -3
0 -45 -20 -93 -45z"/>
<path d="M4031 3375 c-767 -383 -1191 -599 -1188 -608 2 -6 10 -13 18 -15 18
-3 2389 1175 2389 1187 0 43 -35 27 -1219 -564z"/>
<path d="M3588 3844 c-16 -8 -28 -17 -28 -19 0 -3 28 -60 62 -128 35 -67 64
-126 66 -132 2 -5 -20 15 -48 45 -131 139 -162 170 -171 170 -6 0 -23 -7 -39
-15 l-30 -15 107 -214 107 -214 32 16 33 15 -66 131 -65 131 109 -108 110
-108 36 17 35 17 -106 213 c-59 118 -109 214 -112 214 -3 -1 -17 -8 -32 -16z"/>
<path d="M3308 3704 l-28 -14 107 -214 107 -214 32 16 32 15 -106 213 c-59
118 -109 214 -112 214 -3 -1 -17 -7 -32 -16z"/>
<path d="M5055 3678 c-44 -22 -81 -42 -83 -43 -2 -2 191 -401 206 -424 4 -8
182 82 182 92 0 7 -18 46 -25 55 -2 2 -26 -8 -54 -22 -28 -14 -55 -26 -60 -26
-9 0 -61 90 -61 104 0 3 18 15 40 26 22 11 40 23 40 26 0 3 -7 18 -15 35 l-16
29 -39 -20 c-22 -11 -42 -20 -44 -20 -6 0 -56 95 -56 104 0 3 24 18 53 32 28
15 54 28 56 30 8 7 -22 64 -33 64 -6 -1 -47 -19 -91 -42z"/>
<path d="M3118 3614 c-32 -17 -58 -62 -58 -99 0 -14 33 -92 74 -173 78 -156
93 -172 157 -172 65 0 108 43 109 108 0 34 -18 90 -35 110 -2 2 -17 -4 -35
-13 -23 -12 -30 -21 -25 -33 28 -66 29 -70 15 -87 -31 -37 -52 -15 -125 127
l-70 138 21 21 c27 26 55 15 74 -30 12 -30 12 -30 44 -14 17 8 32 17 34 18 2
2 -6 22 -18 45 -32 63 -103 87 -162 54z"/>
<path d="M4873 3588 c-13 -6 -23 -15 -23 -20 0 -4 30 -67 66 -140 l66 -131
-79 84 c-44 46 -93 99 -109 118 l-30 34 -35 -18 c-19 -10 -35 -19 -37 -20 -4
-4 207 -425 213 -425 12 0 55 24 55 32 0 4 -27 62 -60 128 -33 66 -60 122 -60
124 0 3 48 -44 106 -104 l106 -109 32 16 c17 8 33 17 35 19 8 7 -203 424 -214
423 -5 0 -20 -5 -32 -11z"/>
<path d="M4525 3418 c-36 -20 -55 -52 -55 -96 0 -61 127 -315 169 -337 78 -40
171 14 171 100 0 14 -33 92 -74 173 -79 157 -93 172 -159 172 -18 0 -41 -6
-52 -12z m71 -66 c17 -11 134 -248 134 -271 0 -28 -36 -47 -57 -30 -20 17
-133 243 -133 267 0 32 31 51 56 34z"/>
<path d="M4198 3249 c-54 -27 -98 -52 -98 -55 0 -3 7 -18 15 -35 15 -28 16
-29 45 -14 16 8 31 15 34 15 3 0 45 -78 92 -172 47 -95 88 -175 90 -177 4 -4
64 19 64 25 0 2 -40 84 -89 183 l-90 178 35 16 35 17 -17 32 c-9 18 -17 34
-18 34 0 1 -45 -20 -98 -47z"/>
<path d="M4008 3154 l-28 -14 107 -214 107 -214 32 16 32 15 -106 213 c-59
118 -109 214 -112 214 -3 -1 -17 -7 -32 -16z"/>
<path d="M3874 3087 c-28 -15 -39 -27 -36 -37 18 -50 88 -310 82 -303 -4 4
-51 65 -104 135 l-98 127 -44 -22 c-24 -11 -44 -25 -44 -29 0 -8 198 -408 206
-417 4 -4 64 19 64 25 0 3 -27 58 -60 124 -33 66 -58 120 -56 120 2 0 43 -47
91 -105 47 -58 88 -105 91 -105 17 0 44 23 44 38 0 9 -15 72 -34 140 -18 67
-32 122 -30 122 2 0 30 -56 63 -125 l60 -125 35 16 34 17 -106 213 c-59 118
-109 214 -112 214 -3 -1 -23 -11 -46 -23z"/>
<path d="M3433 2869 c-35 -16 -63 -34 -63 -39 0 -10 197 -409 207 -420 2 -2
33 11 69 29 117 61 120 99 24 292 -62 123 -75 142 -105 155 -46 19 -59 17
-132 -17z m174 -174 c34 -66 62 -128 63 -137 0 -16 -35 -48 -52 -48 -5 0 -41
65 -81 145 -61 123 -70 147 -57 155 8 6 26 9 40 8 21 -3 35 -22 87 -123z"/>
<path d="M3193 2750 c-26 -11 -41 -24 -38 -32 3 -7 34 -109 69 -226 35 -117
66 -215 69 -218 5 -5 67 23 67 30 0 2 -7 23 -15 46 -20 56 -20 56 16 71 34 14
39 11 80 -51 15 -22 18 -23 48 -11 17 8 31 19 29 26 -4 15 -271 385 -278 385
-3 0 -24 -9 -47 -20z m112 -186 c35 -51 43 -69 33 -75 -26 -17 -33 -8 -60 66
-14 41 -25 75 -23 75 2 0 24 -30 50 -66z"/>
<path d="M5810 2740 l-155 -79 711 0 711 -1 36 -73 c20 -40 55 -94 77 -120 50
-56 147 -121 215 -143 27 -9 66 -32 86 -50 l35 -34 -48 -52 c-26 -29 -48 -55
-48 -58 0 -3 23 -28 50 -55 l50 -49 -52 -53 -52 -53 52 -53 52 -53 -55 -54
-55 -54 55 -56 55 -55 -52 -53 -53 -52 53 -53 52 -52 -52 -53 -53 -52 53 -53
52 -53 -50 -49 c-27 -27 -50 -54 -50 -61 0 -6 23 -33 51 -59 l51 -47 -32 -33
c-18 -19 -51 -38 -76 -45 -131 -37 -279 -175 -325 -302 l-13 -38 -1646 0
c-906 0 -1856 -3 -2111 -7 l-464 -6 -37 75 c-64 129 -163 219 -297 268 -31 12
-71 35 -89 53 l-32 31 52 53 52 53 -52 53 -52 53 50 49 c27 27 50 54 50 60 0
5 -24 31 -52 57 l-53 46 50 52 50 52 -35 -7 c-28 -6 -243 -106 -259 -121 -2
-2 13 -20 33 -41 l36 -37 -52 -53 -52 -53 54 -55 55 -55 -53 -52 -52 -53 52
-52 52 -53 -53 -54 -53 -54 133 -4 c120 -3 140 -6 191 -30 113 -53 199 -165
213 -281 l7 -52 1326 2 c730 1 1742 2 2248 3 l921 0 5 43 c9 76 55 162 119
221 80 74 142 96 292 105 l118 6 -49 48 -49 48 54 52 54 52 -56 55 -55 54 55
56 56 56 -54 51 -54 51 54 54 53 53 -53 53 -54 53 54 52 54 52 -56 55 -55 54
55 56 56 56 -54 51 -54 51 54 54 53 53 -53 53 -54 54 54 51 54 51 -56 56 -55
55 52 53 53 52 -91 0 c-160 0 -242 25 -328 101 -54 48 -104 143 -113 217 l-6
52 -626 -1 -626 0 -155 -79z"/>
<path d="M5140 2405 l-65 -34 513 -1 512 0 0 -775 0 -775 -1403 0 c-1301 0
-1404 1 -1427 17 -14 9 -28 22 -32 27 -4 6 -8 90 -8 186 0 96 -3 225 -7 287
l-6 111 -34 -16 -34 -16 6 -281 c7 -270 8 -281 30 -316 48 -75 -104 -70 1794
-67 l1700 3 28 21 c15 11 38 36 51 54 l22 33 0 729 c0 813 3 775 -69 824 l-36
24 -735 0 -735 -1 -65 -34z m1544 -61 l26 -27 0 -718 0 -718 -24 -28 -24 -28
-246 -3 -246 -3 0 776 0 775 244 0 243 0 27 -26z"/>
<path d="M6530 2255 l0 -25 -145 0 -145 0 0 -30 0 -30 190 0 190 0 0 25 c0 14
-4 25 -10 25 -5 0 -16 14 -25 30 -20 38 -55 41 -55 5z"/>
<path d="M6240 1965 l0 -95 30 0 c30 0 30 1 30 55 0 30 2 55 6 55 3 0 32 -18
65 -41 115 -78 171 -88 220 -40 49 50 37 121 -26 147 -52 21 -65 18 -65 -15 0
-23 5 -30 29 -34 33 -7 47 -33 29 -54 -23 -28 -81 -9 -176 56 -54 37 -99 61
-115 61 l-27 0 0 -95z"/>
<path d="M6265 1735 c-19 -18 -25 -35 -25 -65 0 -61 33 -90 103 -90 40 0 61 6
81 21 14 11 26 16 26 11 0 -14 47 -32 84 -32 69 0 113 69 82 128 -16 32 -34
42 -72 42 -32 0 -34 -41 -1 -55 12 -6 23 -20 25 -32 7 -48 -92 -37 -104 12 -8
33 -51 36 -56 3 -4 -30 -47 -53 -81 -44 -22 5 -27 12 -27 36 0 20 6 31 20 35
13 4 20 15 20 31 0 33 -42 33 -75 -1z"/>
<path d="M6320 1420 l0 -50 -40 0 c-38 0 -40 -2 -40 -30 0 -28 2 -30 40 -30
33 0 40 -3 40 -20 0 -16 7 -20 30 -20 23 0 30 4 30 20 0 19 7 20 121 20 l120
0 -3 31 c-3 29 -9 34 -118 80 -63 26 -130 48 -147 49 -33 0 -33 0 -33 -50z
m134 -36 l31 -13 -52 -1 c-47 0 -53 2 -53 21 0 22 10 21 74 -7z"/>
<path d="M6265 1135 c-18 -17 -25 -35 -25 -62 1 -69 37 -93 137 -93 37 0 79 6
93 13 21 11 25 20 24 60 0 47 0 47 33 47 l33 0 0 -55 c0 -54 0 -55 30 -55 l30
0 0 80 0 80 -105 0 c-103 0 -105 0 -105 -23 0 -16 9 -28 25 -35 55 -25 17 -54
-67 -50 -57 3 -63 5 -66 26 -3 17 2 25 17 29 15 4 21 13 21 34 0 24 -4 29 -25
29 -14 0 -37 -11 -50 -25z"/>
<path d="M4830 1995 l0 -235 35 0 34 0 3 138 3 137 28 -120 c16 -66 31 -128
33 -137 8 -28 62 -24 69 5 3 12 16 74 29 137 l24 115 1 -137 1 -138 35 0 35 0
0 235 0 235 -49 0 -49 0 -21 -112 c-11 -62 -23 -132 -27 -155 -4 -24 -10 -43
-13 -43 -4 0 -21 70 -37 155 l-29 155 -52 0 -53 0 0 -235z"/>
<path d="M5300 2218 c-1 -7 -18 -113 -39 -235 l-38 -223 38 0 37 0 9 53 c8 51
9 52 45 55 l36 3 9 -53 c8 -52 9 -53 46 -56 30 -3 37 0 36 15 0 10 -17 115
-38 233 l-37 215 -52 3 c-37 2 -52 -1 -52 -10z m74 -240 c6 -36 5 -38 -20 -38
-26 0 -26 1 -20 53 4 28 10 68 13 87 l7 35 7 -50 c4 -27 10 -67 13 -87z"/>
<path d="M4710 2190 l-55 -29 63 -1 62 0 0 30 c0 17 -3 30 -7 30 -5 -1 -33
-14 -63 -30z"/>
<path d="M4613 2142 l-33 -16 0 -183 0 -183 100 0 100 0 0 35 0 35 -65 0 -65
0 0 65 0 65 45 0 c45 0 45 0 45 35 0 35 0 35 -45 35 l-44 0 -3 64 -3 63 -32
-15z"/>
<path d="M4473 2073 c-32 -16 -33 -19 -34 -82 l-1 -66 -15 53 c-16 54 -22 59
-53 42 -17 -9 -16 -16 23 -135 l42 -125 37 0 38 0 0 165 c0 91 -1 165 -2 164
-2 0 -18 -8 -35 -16z"/>
<path d="M4293 1983 l-33 -17 0 -103 0 -103 40 0 40 0 0 120 c0 66 -3 120 -7
119 -5 0 -23 -8 -40 -16z"/>
<path d="M4158 1914 c-26 -14 -28 -19 -28 -84 l0 -70 35 0 35 0 0 85 c0 47 -3
85 -7 85 -5 -1 -20 -8 -35 -16z"/>
<path d="M3980 1827 c-47 -21 -87 -41 -90 -44 -3 -2 4 -11 14 -19 44 -31 124
-7 151 47 29 55 16 58 -75 16z"/>
<path d="M3518 1599 c-21 -11 -38 -22 -38 -26 0 -7 2511 6 2522 13 4 3 5 11 1
19 -4 13 -162 15 -1227 15 -1197 -1 -1222 -1 -1258 -21z"/>
<path d="M5073 1424 c-53 -26 -63 -63 -63 -228 0 -104 4 -157 14 -181 30 -72
134 -86 189 -25 l27 30 0 166 c0 183 -7 212 -60 239 -37 19 -67 19 -107 -1z
m81 -76 c24 -34 23 -284 -1 -310 -21 -24 -39 -23 -57 4 -13 18 -16 51 -16 153
0 134 10 175 45 175 8 0 21 -10 29 -22z"/>
<path d="M3585 1418 c-6 -20 -75 -433 -75 -452 0 -12 9 -16 35 -16 32 0 35 3
40 38 13 72 14 73 53 70 36 -3 37 -4 45 -55 l9 -53 37 0 38 0 -40 240 -41 240
-48 0 c-30 0 -50 -5 -53 -12z m70 -234 c6 -54 6 -54 -20 -54 -25 0 -27 2 -21
33 3 17 9 57 13 87 6 53 7 54 14 21 4 -19 10 -58 14 -87z"/>
<path d="M3830 1189 l0 -242 73 5 c79 5 117 23 135 64 8 15 12 85 12 185 l0
161 -34 34 c-33 33 -37 34 -110 34 l-76 0 0 -241z m138 159 c13 -13 18 -271 6
-302 -4 -10 -18 -16 -40 -16 l-34 0 0 165 0 165 28 0 c15 0 33 -5 40 -12z"/>
<path d="M4110 1190 l0 -240 41 0 40 0 -3 139 c-2 77 -1 137 2 135 2 -3 18
-64 35 -137 l30 -132 30 0 29 0 28 134 c15 73 29 136 32 139 3 3 6 -58 6 -136
l0 -142 35 0 35 0 0 240 0 240 -50 0 c-32 0 -52 -5 -55 -12 -2 -7 -16 -83 -32
-168 l-29 -155 -33 168 -34 167 -53 0 -54 0 0 -240z"/>
<path d="M4510 1195 l0 -235 35 0 35 0 0 235 0 235 -35 0 -35 0 0 -235z"/>
<path d="M4640 1395 c0 -34 1 -35 40 -35 l40 0 0 -200 0 -200 35 0 35 0 0 200
0 200 35 0 c33 0 35 2 35 35 l0 35 -110 0 -110 0 0 -35z"/>
<path d="M5300 1195 l0 -235 41 0 40 0 -3 140 c-2 76 0 136 4 132 3 -4 25 -67
47 -139 l42 -133 39 0 40 0 0 235 0 235 -35 0 -34 0 -3 -152 -3 -152 -44 152
-45 152 -43 0 -43 0 0 -235z"/>
<path d="M5620 1195 l0 -235 100 0 100 0 0 35 0 35 -65 0 -65 0 0 65 0 65 45
0 c45 0 45 0 45 35 0 35 0 35 -45 35 l-45 0 0 65 0 65 65 0 65 0 0 35 0 35
-100 0 -100 0 0 -235z"/>
</g>
</svg>
